<svg xmlns="http://www.w3.org/2000/svg" viewBox="0 0 1280 591" fill="none">
  <g fill="#37003c">
    <!-- Lion head simplified -->
    <path d="M97 222c-35 8-57 38-57 75 0 33 18 60 44 76-3 14-4 29-4 44 0 78 40 142 144 142 60 0 96-22 117-55 14 17 35 27 60 27 49 0 84-37 84-94 0-21-5-41-15-58 24-15 39-42 39-75 0-22-7-42-19-57 17-13 27-33 27-57 0-39-30-71-69-71-13 0-25 4-35 10-9-32-37-55-72-55-22 0-42 9-56 24-9-21-29-36-53-36s-44 15-53 36c-14-15-34-24-56-24-35 0-63 23-72 55-10-6-22-10-35-10-39 0-69 32-69 71 0 24 10 44 27 57-12 15-19 35-19 57 0 12 2 24 6 35z"/>
    <!-- Crown -->
    <path d="M205 18l25 48 33-58 30 60 35-62 22 50 -15 56h-150l-15-56z"/>
  </g>
  <text x="500" y="270" font-family="DM Sans, Arial, sans-serif" font-weight="700" font-size="220" fill="#37003c">Premier</text>
  <text x="500" y="480" font-family="DM Sans, Arial, sans-serif" font-weight="700" font-size="220" fill="#37003c">League</text>
</svg>
